# xmcd
#
# Track frame offsets: 
#        150
#        14768
#        28709
#        41844
#        55177
#        67663
#        81355
#        93868
#        107741
#        121240
#        134532
#        148627
#        162279
#        176613
#        188881
#        203724
#        215538
#        226428
#        240088
#        254341
#        269925
#        285490
#        299336
#        313500
#
# Disc length: 4367 seconds
#
# Revision: 0
# Processed by: cddbd v1.5.2PL0 Copyright (c) Steve Scherf et al.
# Submitted via: ExactAudioCopy v1.0b4
#
DISCID=63110d18
DTITLE=Various Artist - The Rough Guide to Unsung Heroes of Country Blues (Vo
DTITLE=l. 2)
DYEAR=2015
DGENRE=Blues
TTITLE0=Kansas Joe McCoy - Bothering That Thing
TTITLE1=Ed Bell - She’s a Fool Gal
TTITLE2=Kid Cole - Niagra Fall Blues
TTITLE3=Papa Charlie Jackson - The Cat’s Got the Measles
TTITLE4=George Torey - Lonesome Man Blues
TTITLE5=Memphis Jug Band - This Will Bring You Back
TTITLE6=Kid Bailey - Mississippi Bottom Blues
TTITLE7=Buddy Boy Hawkins - Snatch It and Grab It
TTITLE8=Sylvester Weaver - Guitar Rag
TTITLE9=Bobby Grant - Lonesome Atlanta Blues
TTITLE10=William Moore - Ragtime Millionaire
TTITLE11=Jaybird Coleman - Man Trouble Blues
TTITLE12=Jelly Jaw Short - Grand Daddy Blues
TTITLE13=Blind Joe Taggart - Religion Is Something Within You
TTITLE14=Willie Baker - Rag Baby
TTITLE15=Jim Jackson - Hey Mama: It’s Nice Like That, Pt. 2
TTITLE16=Ramblin' Thomas - Poor Boy Blues
TTITLE17=Pillie Bolling - Shake Me Like a Dog
TTITLE18=Mattie Delaney - Down the Big Road Blues
TTITLE19=Ishman Bracey - Woman Woman Blues
TTITLE20=Willie Walker - Dupree Blues
TTITLE21=Charley Lincoln - Mama Don’t Rush Me
TTITLE22=Billy Bird - Alabama Blues, Pt. 1
TTITLE23=Little Hat Jones - Bye Bye Baby Blues
EXTD=
EXTT0=
EXTT1=
EXTT2=
EXTT3=
EXTT4=
EXTT5=
EXTT6=
EXTT7=
EXTT8=
EXTT9=
EXTT10=
EXTT11=
EXTT12=
EXTT13=
EXTT14=
EXTT15=
EXTT16=
EXTT17=
EXTT18=
EXTT19=
EXTT20=
EXTT21=
EXTT22=
EXTT23=
PLAYORDER=
